<?xml version="1.0" encoding="UTF-8" standalone="no"?>
<svg
   width="32.0px"
   height="32.0px"
   viewBox="0 0 32.0 32.0"
   version="1.1"
   id="SVGRoot"
   xmlns="http://www.w3.org/2000/svg"
   xmlns:svg="http://www.w3.org/2000/svg"
   xmlns:rdf="http://www.w3.org/1999/02/22-rdf-syntax-ns#"
   xmlns:cc="http://creativecommons.org/ns#"
   xmlns:dc="http://purl.org/dc/elements/1.1/">
  <defs
     id="defs833" />
  <metadata
     id="metadata836">
    <rdf:RDF>
      <cc:Work
         rdf:about="">
        <dc:format>image/svg+xml</dc:format>
        <dc:type
           rdf:resource="http://purl.org/dc/dcmitype/StillImage" />
      </cc:Work>
    </rdf:RDF>
  </metadata>
  <path
     d="M 3,0 C 1.338,0 0,1.338 0,3 v 26 c 0,1.662 1.338,3 3,3 h 12 c 1.662,0 3,-1.338 3,-3 V 22.001953 C 17.762548,22.003406 17.524288,21.993787 17.287109,22 16.94945,22.579279 16.509376,23.092727 16,23.523438 V 27 H 2 V 4 h 14 v 1.0175781 c 0.0295,-0.00126 0.05834,-0.0069 0.08789,-0.00781 0.637026,-0.01786 1.274807,-0.00825 1.912109,-0.00781 V 3 C 18,1.338 16.662,0 15,0 Z"
     style="vector-effect:none;fill:#000000;fill-opacity:1;stroke:none;stroke-width:10.4;stroke-linecap:butt;stroke-linejoin:bevel;stroke-miterlimit:4;stroke-dasharray:none;stroke-dashoffset:0;stroke-opacity:1"
     id="rect1438" />
  <path
     style="color:#000000;fill:#000000;-inkscape-stroke:none"
     d="M 16.5,6 C 12.353653,6 9,9.3536528 9,13.5 c 0,2.508165 1.277235,4.673411 3.164063,6.033203 0.298618,2.105766 -0.208351,2.919093 -0.988282,3.585938 L 10.125,24.017578 11.505859,24 C 13.08766,23.979219 14.23928,23.59365 15.09375,22.980469 15.849702,22.437986 16.306561,21.714767 16.724609,21 H 22.5 C 26.646347,21 30,17.646347 30,13.5 30,9.3536528 26.646347,6 22.5,6 Z m 0,1 h 6 C 26.109645,7 29,9.890355 29,13.5 29,17.109645 26.109645,20 22.5,20 H 16.205078 L 16.0625,20.257812 c -0.421111,0.759906 -0.875484,1.425554 -1.550781,1.910157 -0.480902,0.345102 -1.16354,0.561852 -1.986328,0.693359 0.525517,-0.831589 0.891536,-1.878571 0.628906,-3.580078 l -0.0332,-0.220703 -0.1875,-0.121094 C 11.164517,17.78042 10,15.787169 10,13.5 10,9.890355 12.890355,7 16.5,7 Z"
     id="rect1465" />
</svg>
