<?xml version="1.0" encoding="UTF-8" standalone="no"?>
<svg
   xmlns:dc="http://purl.org/dc/elements/1.1/"
   xmlns:cc="http://creativecommons.org/ns#"
   xmlns:rdf="http://www.w3.org/1999/02/22-rdf-syntax-ns#"
   xmlns:svg="http://www.w3.org/2000/svg"
   xmlns="http://www.w3.org/2000/svg"
   xmlns:sodipodi="http://sodipodi.sourceforge.net/DTD/sodipodi-0.dtd"
   xmlns:inkscape="http://www.inkscape.org/namespaces/inkscape"
   sodipodi:docname="icon.svg"
   inkscape:version="1.0 (4035a4fb49, 2020-05-01)"
   width="32.0px"
   height="32.0px"
   viewBox="0 0 32.0 32.0"
   version="1.1"
   id="SVGRoot">
  <defs
     id="defs833" />
  <sodipodi:namedview
     inkscape:snap-global="false"
     inkscape:window-maximized="1"
     inkscape:window-y="-8"
     inkscape:window-x="-8"
     inkscape:window-height="1017"
     inkscape:window-width="1920"
     showgrid="true"
     inkscape:document-rotation="0"
     inkscape:current-layer="layer1"
     inkscape:document-units="px"
     inkscape:cy="7.8949861"
     inkscape:cx="17.685545"
     inkscape:zoom="4"
     inkscape:pageshadow="2"
     inkscape:pageopacity="0.0"
     borderopacity="1.0"
     bordercolor="#666666"
     pagecolor="#ffffff"
     id="base">
    <inkscape:grid
       type="xygrid"
       id="grid1403" />
  </sodipodi:namedview>
  <metadata
     id="metadata836">
    <rdf:RDF>
      <cc:Work
         rdf:about="">
        <dc:format>image/svg+xml</dc:format>
        <dc:type
           rdf:resource="http://purl.org/dc/dcmitype/StillImage" />
        <dc:title></dc:title>
      </cc:Work>
    </rdf:RDF>
  </metadata>
  <g
     id="layer1"
     inkscape:groupmode="layer"
     inkscape:label="Layer 1">
    <path
       d="M 3 0 C 1.338 0 0 1.338 0 3 L 0 29 C 0 30.662 1.338 32 3 32 L 15 32 C 16.662 32 18 30.662 18 29 L 18 22.001953 C 17.762548 22.003406 17.524288 21.993787 17.287109 22 C 16.94945 22.579279 16.509376 23.092727 16 23.523438 L 16 27 L 2 27 L 2 4 L 16 4 L 16 5.0175781 C 16.029503 5.0163178 16.058345 5.0106807 16.087891 5.0097656 C 16.724917 4.9919055 17.362698 5.0015113 18 5.0019531 L 18 3 C 18 1.338 16.662 0 15 0 L 3 0 z "
       style="opacity:1;vector-effect:none;fill:#000000;fill-opacity:1;stroke:none;stroke-width:10.4;stroke-linecap:butt;stroke-linejoin:bevel;stroke-miterlimit:4;stroke-dasharray:none;stroke-dashoffset:0;stroke-opacity:1"
       id="rect1438" />
    <path
       sodipodi:nodetypes="sscccssss"
       d="m 16.5,6.5 c -3.878,0 -7,3.122 -7,7 0,2.457397 1.254933,4.609191 3.160156,5.857422 C 13.018034,21.676016 12.38349,22.744611 11.5,23.5 c 3.011279,-0.03956 4.130354,-1.4307 5,-3 h 6 c 3.878,0 7,-3.122 7,-7 0,-3.878 -3.122,-7 -7,-7 z"
       style="opacity:1;vector-effect:none;fill:none;fill-opacity:1;stroke:#000000;stroke-width:1;stroke-linecap:butt;stroke-linejoin:miter;stroke-miterlimit:4;stroke-dasharray:none;stroke-dashoffset:0;stroke-opacity:1"
       id="rect1465" />
  </g>
</svg>
